<svg width="39" height="39" viewBox="0 0 39 39" fill="none" xmlns="http://www.w3.org/2000/svg">
<g clip-path="url(#clip0_42755_180)">
<path d="M26.031 3.73074H12.969C11.527 3.73074 10.3539 4.90383 10.3539 6.34588V35.8079C10.3539 37.2499 11.527 38.423 12.969 38.423H26.031C27.4731 38.423 28.6462 37.2499 28.6462 35.8079V6.34597C28.6462 4.90383 27.4731 3.73074 26.031 3.73074ZM27.3846 35.8079C27.3846 36.5542 26.7772 37.1616 26.031 37.1616H12.969C12.2228 37.1616 11.6154 36.5542 11.6154 35.8079V6.34597C11.6154 5.59977 12.2228 4.99234 12.969 4.99234H26.031C26.7773 4.99234 27.3847 5.59977 27.3847 6.34597V35.8079H27.3846Z" fill="black"/>
<path d="M22.9693 0.576935H16.0308C15.6825 0.576935 15.4 0.859395 15.4 1.20773V4.36155C15.4 4.70989 15.6825 4.99235 16.0308 4.99235H22.9693C23.3176 4.99235 23.6001 4.70989 23.6001 4.36155V1.20773C23.6 0.859395 23.3176 0.576935 22.9693 0.576935ZM22.3385 3.73075H16.6615V1.83844H22.3385V3.73075Z" fill="black"/>
<path d="M24.1319 17.8996C24.0161 17.7175 23.8155 17.6075 23.6 17.6075H19.8154V11.9306C19.8154 11.6349 19.6099 11.379 19.3213 11.315C19.0301 11.2512 18.738 11.396 18.613 11.6639L14.1976 21.1255C14.1065 21.3207 14.1215 21.5494 14.2373 21.731C14.3531 21.9132 14.5537 22.0231 14.7692 22.0231H18.5538V27.7C18.5538 27.9957 18.7593 28.2516 19.0479 28.3157C19.0938 28.3259 19.1396 28.3308 19.1849 28.3308C19.4257 28.3308 19.6509 28.1922 19.7562 27.9667L24.1716 18.5052C24.2627 18.3099 24.2477 18.0812 24.1319 17.8996ZM18.5538 20.7615H15.7597L18.5538 14.7738V20.7615ZM19.8154 24.857V18.8692H22.6095L19.8154 24.857Z" fill="black"/>
</g>
<defs>
<clipPath id="clip0_42755_180">
<rect width="37.8462" height="37.8462" fill="white" transform="translate(0.57692 0.576935)"/>
</clipPath>
</defs>
</svg>
